<?xml version="1.0" encoding="utf-8"?>
<!-- Generator: Adobe Illustrator 16.0.4, SVG Export Plug-In . SVG Version: 6.00 Build 0)  -->
<!DOCTYPE svg PUBLIC "-//W3C//DTD SVG 1.1//EN" "http://www.w3.org/Graphics/SVG/1.1/DTD/svg11.dtd">
<svg version="1.1" id="Layer_1" xmlns="http://www.w3.org/2000/svg" xmlns:xlink="http://www.w3.org/1999/xlink" x="0px" y="0px"
	 width="300px" height="300px" viewBox="0 0 300 300" enable-background="new 0 0 300 300" xml:space="preserve">
<g>
	<g>
		<path fill="#FCE04E" d="M265.88,110.915c-2.21,26.865-6.796,57.12-16.231,80.429c0,0-25.896,64.432-81.257,91.857
			c-6.954,3.461-14.346,6.311-22.23,8.393c-70.705-18.639-103.489-100.25-103.489-100.25c-4.993-12.352-8.631-26.643-11.279-41.363
			C22.456,100.386,24.887,46.07,24.887,46.07c91.622-6.868,121.274-37.717,121.274-37.717s29.649,30.849,121.273,37.717
			c0,0,1.29,29.291-1.521,64.481L265.88,110.915z"/>
		<path fill="#231F20" d="M146.161,295.637c-0.346,0-0.693-0.041-1.031-0.131C73.286,276.568,40.289,196.258,38.92,192.85
			c-4.691-11.602-8.563-25.787-11.506-42.153c-8.916-49.469-6.59-104.258-6.567-104.808c0.093-2.042,1.695-3.698,3.738-3.849
			c89.049-6.676,118.375-36.191,118.66-36.488c1.525-1.586,4.305-1.586,5.828,0c0.278,0.286,30.112,29.849,118.663,36.488
			c2.041,0.154,3.649,1.809,3.737,3.854c0.016,0.294,1.271,29.942-1.528,64.977l-0.044,0.452
			c-2.787,33.918-8.344,61.377-16.506,81.531c-1.075,2.684-27.108,66.178-83.208,93.967c-7.417,3.693-15.156,6.613-22.997,8.682
			C146.852,295.594,146.505,295.637,146.161,295.637z M28.809,49.817c-0.341,12.836-0.889,58.087,6.563,99.45
			c2.843,15.817,6.562,29.463,11.047,40.559c0.323,0.803,32.572,79.168,99.742,97.582c6.953-1.908,13.825-4.537,20.428-7.824
			c53.372-26.441,79.055-89.119,79.309-89.746c7.857-19.412,13.222-46.073,15.953-79.254l0.042-0.443
			c2.188-27.417,1.852-51.508,1.617-60.324c-74.986-6.24-107.979-28.362-117.353-36.048
			C136.786,21.456,103.791,43.579,28.809,49.817z"/>
	</g>
	<g>
		<path fill="#FFFFFF" d="M81.819,133.138c6.64-1.934,18.212-4.812,32.501-6.37c-1.888-0.922-3.944-1.881-5.869-2.743
			c-0.837-0.373-1.443-1.134-1.615-2.036c-0.179-0.901,0.097-1.826,0.736-2.491c2.384-2.459,5.477-3.73,8.171-4.38
			c-5.491-3.262-14.261-1.776-17.168-1.156C95.865,115.727,89.689,120.75,81.819,133.138z"/>
		<path fill="#FFFFFF" d="M92.541,144.363c0.239,0.1,15.283,6.4,32.321,1.983c6.616-6.396,3.771-12.281,3.736-12.34
			c-0.876-1.542-2.962-2.174-4.409-2.413c-19.594,1.141-35.706,5.403-42.75,7.55C83.506,140.4,86.909,142.144,92.541,144.363z"/>
	</g>
	<path fill="#E4D228" d="M246.514,172.951c-1.027,0.105-1.994,0.146-2.603,0.049l2.655,1.334
		C246.512,173.877,246.503,173.418,246.514,172.951z"/>
	<path fill="#FFFFFF" d="M279.022,170.143c-0.029,0.076-0.048,0.146-0.073,0.23C278.972,170.285,278.993,170.219,279.022,170.143z"
		/>
	<path fill="#FFFFFF" d="M205.474,197.316c0.172-0.096,0.33-0.199,0.494-0.307C205.804,197.117,205.646,197.221,205.474,197.316z"/>
	<path fill="#FFFFFF" d="M279.442,168.777c-0.015,0.045-0.039,0.117-0.052,0.178C279.411,168.889,279.428,168.822,279.442,168.777z"
		/>
	<path fill="#231F20" d="M251.252,138.312c0.231-11.671-3.125-21.233-5.259-26.092c1.384-0.378,2.136-0.738,2.337-0.839
		c0.679-0.34,1.19-0.944,1.417-1.667c0.225-0.729,0.151-1.509-0.209-2.18c-4.667-8.649-9.752-15.412-14.8-20.697
		c-1.273-1.425-2.601-2.708-3.973-3.854c-6.975-6.336-13.64-10.014-18.734-12.113c0.96-0.306,1.705-1.117,1.904-2.14
		c0.243-1.257-0.386-2.528-1.549-3.079c-18.675-8.945-51.075-13.032-78.06-0.833c-18.557,8.38-31.53,23.461-37.57,43.649
		c-0.112,0.062-0.249,0.15-0.379,0.223c-0.088,0.021-0.205,0.047-0.233,0.058l0.016,0.066c-3.76,2.24-12.28,8.927-22.842,27.543
		c-0.254,0.439-0.379,0.949-0.368,1.456c0.034,1.218,0.127,4.93,17.44,11.751c0.747,0.319,17.941,7.607,37.604,1.779
		c3.359,2.723,13.805,13.031,13.433,35.703c-3.166,1.359-11.794,4.389-25.833,4.047c-15.825-0.369-41.732-5.213-76.789-25.527
		c0.638,2.621,1.312,5.143,2.008,7.605c33.856,18.756,59.465,23.66,76.879,23.66c17.879,0,27.146-5.117,27.912-5.555
		c0.832-0.482,1.367-1.363,1.402-2.328c1.021-25.936-10.927-38.222-15.357-41.873c5.675-8.037,2.145-15.287,1.913-15.735
		c-1.973-3.488-5.804-4.896-8.662-5.325l-0.006-0.11c-0.171,0.005-0.332,0.021-0.506,0.032c-0.019,0-0.04-0.002-0.06-0.01
		c-1.327-1.071-3.89-2.536-8.845-4.875c2.976-1.062,5.979-0.961,6.005-0.964c1.071,0.073,1.972-0.458,2.508-1.311
		c0.538-0.856,0.58-1.938,0.099-2.832c-1.533-2.863-3.771-4.781-6.299-6.082c2.38-1.696,5.367-3.721,8.407-5.559
		c0.55,1.604,1.448,3.241,2.703,4.769c3.111,3.799,7.526,5.963,12.025,5.963c0.494,0,0.99-0.027,1.485-0.077
		c5.868-0.625,12.924-3.961,14.961-15.675c1.769,0.155,3.687,0.336,5.802,0.565c1.077,0.107,2.074-0.379,2.654-1.264
		c0.578-0.881,0.609-2.012,0.091-2.93c-0.285-0.504-0.81-1.396-1.484-2.418c1.241,0.191,2.586,0.475,3.962,0.902
		c0.801,0.245,1.674,0.123,2.378-0.331c0.177-0.12,3.099-2.097,3.894-6.547c1.646,0.92,3.504,1.473,5.442,1.073
		c2.739-0.573,4.745-2.808,5.977-6.665c5.607-1.553,26.957-6.27,41.382,5.969c5.135,4.74,10.463,11.067,15.401,19.525
		c-0.41,0.075-0.88,0.153-1.388,0.22c-0.927,0.123-1.728,0.704-2.146,1.543c-0.414,0.839-0.383,1.831,0.078,2.644
		c0.082,0.139,8.079,14.469,5.796,32.167c-0.146,1.136,0.405,2.237,1.397,2.804c0.989,0.566,2.224,0.483,3.128-0.227
		c0.085-0.069,3.274-2.53,8.686-5.917c0.36-2.37,0.701-4.79,1.028-7.249C256.16,135.08,253.386,136.866,251.252,138.312z
		 M124.188,131.593c1.447,0.238,3.532,0.87,4.409,2.413c0.035,0.059,2.881,5.945-3.736,12.34
		c-17.038,4.417-32.082-1.884-32.321-1.983c-5.631-2.219-9.036-3.96-11.102-5.22C88.482,136.996,104.594,132.734,124.188,131.593z
		 M107.575,119.497c-0.64,0.664-0.914,1.589-0.737,2.491c0.173,0.903,0.779,1.662,1.616,2.036c1.924,0.861,3.98,1.819,5.868,2.741
		c-14.291,1.558-25.863,4.438-32.501,6.371c7.87-12.388,14.046-17.409,16.758-19.175c2.905-0.62,11.677-2.107,17.168,1.156
		C113.05,115.766,109.959,117.037,107.575,119.497z"/>
	<path fill="#F4BF4A" d="M245.212,143.734c2.283-17.698-5.713-32.027-5.795-32.166c-0.461-0.816-0.493-1.806-0.079-2.645
		c0.419-0.839,1.22-1.421,2.146-1.543c0.508-0.066,0.976-0.145,1.388-0.22c-4.938-8.456-10.267-14.783-15.402-19.525
		c-14.424-12.24-35.773-7.52-41.382-5.969c-1.232,3.858-3.236,6.092-5.975,6.665c-1.938,0.399-3.798-0.154-5.442-1.072
		c-0.796,4.449-3.719,6.426-3.894,6.546c-0.704,0.454-1.578,0.575-2.378,0.332c-1.378-0.428-2.723-0.712-3.962-0.903
		c0.678,1.023,1.199,1.915,1.484,2.419c0.52,0.917,0.485,2.05-0.092,2.93c-0.579,0.884-1.576,1.37-2.654,1.263
		c-2.113-0.229-4.031-0.409-5.801-0.565c-2.035,11.714-9.092,15.05-14.962,15.674c-0.494,0.051-0.99,0.08-1.485,0.08
		c-4.499,0-8.914-2.165-12.024-5.964c-1.254-1.529-2.153-3.166-2.703-4.769c-3.041,1.835-6.027,3.862-8.407,5.558
		c2.526,1.303,4.766,3.22,6.299,6.083c0.481,0.894,0.439,1.977-0.099,2.832c-0.536,0.856-1.437,1.386-2.507,1.31
		c-0.026,0.006-3.03-0.096-6.005,0.965c4.955,2.339,7.519,3.804,8.843,4.875c0.02,0.007,0.042,0.009,0.061,0.009
		c0.173-0.009,0.336-0.026,0.505-0.03l0.007,0.109c2.858,0.429,6.688,1.836,8.661,5.325c0.233,0.45,3.764,7.699-1.912,15.736
		c4.43,3.647,16.377,15.934,15.356,41.874c-0.034,0.961-0.569,1.844-1.401,2.324c-0.767,0.438-10.033,5.557-27.913,5.557
		c-17.41,0-43.034-4.926-76.889-23.688c1.712,6.053,3.583,11.646,5.619,16.686c0.323,0.801,32.572,79.168,99.742,97.58
		c6.953-1.908,13.493-5.301,20.428-7.824c51.153-18.59,81.528-96.705,82.333-97.963
		C252.843,169.975,245.066,144.871,245.212,143.734z"/>
	<path fill="#231F20" d="M245.898,189.838c1.318-3.258,6.629-6.164,7.805-9.826c5.842-18.16,5.879-41.818,8.149-69.428l0.042-0.443
		c0.116-1.456,0.22-2.901,0.324-4.342c-3.213,6.341-5.975,12.89-8.634,19.276c-3.084,7.414-6.275,15.073-10.145,22.183
		c-9.83,18.052-21.549,31.955-34.839,41.308c-19.678,13.855-44.267,20.52-63.49,24.789c-8.125,1.801-16.308,3.432-24.59,4.322
		c-6.879,0.744-13.58,0.432-20.457,0.377c-2.576-0.02-6.258-0.041-7.865,2.479c-3.044,4.754,7.337,8.656,10.34,10.041
		c4.598,2.109,9.467,3.658,14.408,4.725c4.773,1.027,14.825,1.818,21.847,1.812c5.344-0.008,8.589-0.131,10.87,0.842
		c2.03,0.871,0.351,3.291-1.235,4.303c-5.735,3.682-11.976,5.938-18.59,7.461c-2.085,0.479-6.627,1.289-7.382,3.725
		c-0.711,2.281,0.52,4.105,2.311,5.27c2.482,1.617,5.951,1.871,8.8,2.332c13.602,2.203,27.497,1.455,41.133-0.02
		c2.289-0.248,7.262-1.104,8.433-0.701c4.511,1.551-4.641,6.848-6.152,7.73c-4.37,2.533-9.094,3.719-13.773,5.512
		c-2.554,0.979-6.972,2.332-8.091,5.189c-0.77,1.961,0.561,3.504,2.73,4.709c5.636,0,10.043-1.479,12.911-2.904
		C224.13,254.115,245.644,190.465,245.898,189.838z"/>
	<path fill="#FFFFFF" d="M243.51,175.453c-15.128,7.887-28.524,18.725-44.307,25.422c0.209-0.113,0.404-0.244,0.61-0.354
		c-0.401,0.219-0.807,0.447-1.213,0.658c-0.05,0.227-0.093,0.457-0.088,0.695c0.049,8.943,28.043-4.498,31.063-5.369
		c1.738-0.498,6.874-2.283,7.918,0.4c2.015,5.145-6.507,7.914-4.864,13.814c0.254,0.908,0.788,1.531,1.463,1.928
		c7.804-13.074,11.707-22.57,11.803-22.816c2.078-5.133,3.976-10.785,5.703-16.92C249.127,172.246,245.065,174.641,243.51,175.453z"
		/>
</g>
</svg>
