<?xml version="1.0" encoding="utf-8"?>
<!-- Generator: Adobe Illustrator 16.0.4, SVG Export Plug-In . SVG Version: 6.00 Build 0)  -->
<!DOCTYPE svg PUBLIC "-//W3C//DTD SVG 1.1//EN" "http://www.w3.org/Graphics/SVG/1.1/DTD/svg11.dtd">
<svg version="1.1" id="Layer_1" xmlns="http://www.w3.org/2000/svg" xmlns:xlink="http://www.w3.org/1999/xlink" x="0px" y="0px"
	 width="288px" height="108px" viewBox="0 0 288 108" enable-background="new 0 0 288 108" xml:space="preserve">
<g>
	<path fill="#BDD533" d="M135.954,64.643V51.7c0-2.923-0.585-4.482-3.353-4.482c-1.753,0-3.937,1.13-5.145,1.833
		c0.117,0.662,0.117,1.364,0.117,2.027v13.565h-5.106V51.7c0-3.078-0.624-4.404-3.353-4.404c-1.832,0-3.938,1.17-5.028,1.754v15.592
		h-5.146V43.358h5.146v2.222c1.287-0.896,3.858-2.807,6.861-2.807c3.196,0,5.105,1.248,5.964,3.158
		c1.637-1.287,4.287-3.158,7.445-3.158c6.666,0,6.744,4.755,6.744,8.342v13.527H135.954z"/>
	<path fill="#BDD533" d="M164.984,64.836c-2.456,0.117-5.848-0.115-6.315-2.416c-1.326,0.975-3.47,2.533-6.587,2.533
		c-4.288,0-6.783-2.066-6.783-6.197c0-5.301,4.834-6.275,8.732-6.315c0,0,3.546-0.038,4.249-0.038v-2.261
		c0-2.534-1.404-2.923-4.483-2.923c-2.065,0-4.365,0.584-5.925,0.975l-1.014-3.819c1.871-0.703,4.562-1.521,7.835-1.521
		c4.443,0,8.576,0.662,8.576,6.159v10.524c0,1.131,0.818,1.324,1.948,1.365L164.984,64.836z M158.28,55.598l-3.938,0.195
		c-3.507,0.156-4.053,1.287-4.053,2.652c0,1.752,0.975,2.455,2.572,2.455c1.676,0,4.56-1.287,5.419-1.521V55.598z"/>
	<path fill="#BDD533" d="M168.472,64.643v-3.627l10.994-13.447h-10.213v-4.21h16.215v3.47l-10.914,13.642h11.07v4.172H168.472z"/>
	<path fill="#BDD533" d="M192.21,40.474l-3.742-3.742l3.742-3.703l3.743,3.703L192.21,40.474z M189.716,64.643V43.358h5.106v21.284
		H189.716z"/>
	<path fill="#BDD533" d="M213.541,47.647c-0.975-0.196-1.52-0.234-2.729-0.234c-2.183,0-4.093,1.169-5.027,2.377v14.852h-5.146
		V43.358h5.146v2.846c1.013-1.52,3.196-3.274,5.729-3.274c1.208,0,2.065,0.117,2.729,0.35L213.541,47.647z"/>
	<path fill="#BDD533" d="M235.248,64.836c-2.455,0.117-5.847-0.115-6.315-2.416c-1.324,0.975-3.469,2.533-6.587,2.533
		c-4.288,0-6.783-2.066-6.783-6.197c0-5.301,4.835-6.275,8.732-6.315c0,0,3.547-0.038,4.249-0.038v-2.261
		c0-2.534-1.404-2.923-4.483-2.923c-2.065,0-4.366,0.584-5.925,0.975l-1.014-3.819c1.871-0.703,4.561-1.521,7.835-1.521
		c4.444,0,8.576,0.662,8.576,6.159v10.524c0,1.131,0.818,1.324,1.948,1.365L235.248,64.836z M228.544,55.598l-3.938,0.195
		c-3.508,0.156-4.054,1.287-4.054,2.652c0,1.752,0.975,2.455,2.572,2.455c1.676,0,4.562-1.287,5.419-1.521V55.598z"/>
	<polygon fill="#BDD533" points="52.646,53.999 74.377,53.999 74.375,32.269 74.352,32.269 65.809,40.812 57.138,32.143 
		52.52,36.762 61.19,45.43 52.647,53.975 	"/>
	<polygon fill="#38BBC3" points="52.646,53.999 74.377,53.999 74.375,75.729 74.352,75.729 65.809,67.186 57.138,75.857 
		52.52,71.238 61.19,62.568 52.647,54.023 	"/>
	<polygon fill="#38BBC3" points="96.108,53.999 74.377,53.999 74.378,32.269 74.403,32.269 82.947,40.812 91.616,32.143 
		96.234,36.762 87.565,45.43 96.108,53.975 	"/>
	<polygon fill="#BDD533" points="96.108,53.999 74.377,53.999 74.378,75.729 74.403,75.729 82.947,67.186 91.616,75.857 
		96.234,71.238 87.565,62.568 96.108,54.023 	"/>
</g>
</svg>
